<svg width="95" height="63" viewBox="0 0 95 63" fill="none" xmlns="http://www.w3.org/2000/svg">
<path d="M45.8761 54.4432V62H2.1855V56.0935L26.9406 32.207C29.9517 29.3117 31.9785 26.8217 33.0208 24.7371C34.0631 22.5945 34.5843 20.452 34.5843 18.3094C34.5843 15.1246 33.4551 12.6635 31.1967 10.9263C28.9963 9.13121 25.8114 8.23366 21.6421 8.23366C14.925 8.23366 9.74232 10.4341 6.0942 14.835L0.18772 9.71027C2.56189 6.81494 5.6599 4.55659 9.48174 2.9352C13.3615 1.31381 17.6755 0.503119 22.4239 0.503119C28.7936 0.503119 33.8604 2.03765 37.6244 5.1067C41.3883 8.11784 43.2703 12.2292 43.2703 17.4408C43.2703 20.6836 42.5754 23.7526 41.1856 26.648C39.7959 29.5433 37.1611 32.844 33.2814 36.55L14.6933 54.4432H45.8761ZM69.521 25.4319C78.207 25.4319 84.5767 27.0823 88.6302 30.383C92.7416 33.6257 94.7973 38.0845 94.7973 43.7594C94.7973 47.3496 93.9287 50.5924 92.1915 53.4877C90.5122 56.3251 87.9353 58.5835 84.4609 60.2628C81.0444 61.8842 76.8172 62.6949 71.7794 62.6949C67.4943 62.6949 63.3539 62.0579 59.3584 60.784C55.3628 59.4521 52.0621 57.628 49.4563 55.3118L53.4519 48.4498C55.5365 50.4187 58.2002 52.0111 61.443 53.2271C64.6858 54.3853 68.1023 54.9643 71.6925 54.9643C76.2671 54.9643 79.7994 54.0089 82.2894 52.098C84.8373 50.1291 86.1113 47.4654 86.1113 44.1068C86.1113 40.4587 84.7215 37.7082 81.942 35.8551C79.1625 33.9442 74.4141 32.9888 67.6969 32.9888H53.8862L57.1 1.198H91.4097V8.75482H64.3963L62.7459 25.4319H69.521Z" fill="#5CE3B5"/>
</svg>
