<svg width="188" height="9" viewBox="0 0 188 9" fill="none" xmlns="http://www.w3.org/2000/svg">
<path opacity="0.78" d="M3.14383 1.67054L2.98577 1.38954L1.853 2.04813L1.86178 0.757295H1.55444V2.03935L0.430454 1.38954L0.272393 1.67054L1.40516 2.30278L0.272393 2.9438L0.430454 3.2248L1.55444 2.575V3.85705H1.86178L1.853 2.56622L2.98577 3.2248L3.14383 2.9438L2.01984 2.30278L3.14383 1.67054ZM6.6812 7.27292H10.6679V6.86899H7.12904V1.1261H6.6812V7.27292ZM13.2314 2.65403C12.5201 2.65403 11.8528 2.8999 11.3961 3.30383L11.6157 3.61995C11.9933 3.27749 12.564 3.0404 13.1963 3.0404C14.092 3.0404 14.5574 3.49702 14.5574 4.34879V4.7176H12.9855C11.7123 4.7176 11.2732 5.30594 11.2732 5.99965C11.2732 6.78117 11.8967 7.30804 12.9241 7.30804C13.7231 7.30804 14.2851 6.98314 14.5749 6.45627V7.27292H14.9964V4.36635C14.9964 3.23358 14.3642 2.65403 13.2314 2.65403ZM12.9855 6.94802C12.1777 6.94802 11.7123 6.57921 11.7123 5.98209C11.7123 5.45522 12.0459 5.06007 12.9943 5.06007H14.5574V5.92062C14.2939 6.57921 13.7583 6.94802 12.9855 6.94802ZM17.9645 7.30804C19.1324 7.30804 19.7734 6.79874 19.7734 6.05234C19.7734 4.30489 16.7352 5.27959 16.7352 3.90095C16.7352 3.40921 17.1303 3.0404 18.026 3.0404C18.5177 3.0404 19.0183 3.17212 19.4046 3.45311L19.6066 3.10187C19.2466 2.82965 18.6143 2.65403 18.0348 2.65403C16.8757 2.65403 16.2961 3.21602 16.2961 3.90973C16.2961 5.70987 19.3344 4.72638 19.3344 6.06112C19.3344 6.57921 18.948 6.92167 17.9821 6.92167C17.3059 6.92167 16.6825 6.66702 16.3312 6.36846L16.1293 6.71971C16.4893 7.05339 17.2093 7.30804 17.9645 7.30804ZM23.0887 6.6758C22.9043 6.84264 22.6496 6.93045 22.3774 6.93045C21.8154 6.93045 21.5256 6.60555 21.5256 6.01721V3.06674H22.9833V2.68915H21.5256V1.6881H21.0866V2.68915H20.2436V3.06674H21.0866V6.06112C21.0866 6.83386 21.5256 7.30804 22.3335 7.30804C22.676 7.30804 23.0448 7.20267 23.2731 6.98314L23.0887 6.6758ZM30.3267 2.68915V5.13031C30.3267 6.21918 29.6857 6.91289 28.6495 6.91289C27.6924 6.91289 27.1392 6.36846 27.1392 5.33228V2.68915H26.7001V5.36741C26.7001 6.64946 27.4465 7.30804 28.6144 7.30804C29.4223 7.30804 30.0458 6.93045 30.3443 6.28943V7.27292H30.7658V2.68915H30.3267ZM34.9276 2.65403C34.1022 2.65403 33.4085 3.06674 33.0484 3.76923V2.68915H32.6269V8.97646H33.066V6.22796C33.4348 6.91289 34.1197 7.30804 34.9276 7.30804C36.2184 7.30804 37.1931 6.35968 37.1931 4.98104C37.1931 3.61117 36.2184 2.65403 34.9276 2.65403ZM34.9013 6.91289C33.8475 6.91289 33.0572 6.13137 33.0572 4.98104C33.0572 3.8307 33.8475 3.04918 34.9013 3.04918C35.955 3.04918 36.7541 3.8307 36.7541 4.98104C36.7541 6.13137 35.955 6.91289 34.9013 6.91289ZM42.1879 0.757295V3.75167C41.8191 3.05796 41.1342 2.65403 40.3175 2.65403C39.0267 2.65403 38.052 3.60239 38.052 4.98104C38.052 6.3509 39.0267 7.30804 40.3175 7.30804C41.1429 7.30804 41.8367 6.90411 42.1967 6.19284V7.27292H42.627V0.757295H42.1879ZM40.3439 6.91289C39.2901 6.91289 38.4998 6.13137 38.4998 4.98104C38.4998 3.8307 39.2901 3.04918 40.3439 3.04918C41.3976 3.04918 42.1879 3.8307 42.1879 4.98104C42.1879 6.13137 41.3976 6.91289 40.3439 6.91289ZM46.0236 2.65403C45.3123 2.65403 44.6449 2.8999 44.1883 3.30383L44.4078 3.61995C44.7854 3.27749 45.3562 3.0404 45.9884 3.0404C46.8841 3.0404 47.3495 3.49702 47.3495 4.34879V4.7176H45.7777C44.5044 4.7176 44.0654 5.30594 44.0654 5.99965C44.0654 6.78117 44.6888 7.30804 45.7162 7.30804C46.5153 7.30804 47.0773 6.98314 47.3671 6.45627V7.27292H47.7886V4.36635C47.7886 3.23358 47.1563 2.65403 46.0236 2.65403ZM45.7777 6.94802C44.9698 6.94802 44.5044 6.57921 44.5044 5.98209C44.5044 5.45522 44.8381 5.06007 45.7865 5.06007H47.3495V5.92062C47.0861 6.57921 46.5504 6.94802 45.7777 6.94802ZM51.6875 6.6758C51.5031 6.84264 51.2484 6.93045 50.9762 6.93045C50.4142 6.93045 50.1244 6.60555 50.1244 6.01721V3.06674H51.5821V2.68915H50.1244V1.6881H49.6854V2.68915H48.8424V3.06674H49.6854V6.06112C49.6854 6.83386 50.1244 7.30804 50.9323 7.30804C51.2748 7.30804 51.6436 7.20267 51.8719 6.98314L51.6875 6.6758ZM56.8146 4.96347C56.8146 3.60239 55.8838 2.65403 54.6281 2.65403C53.3724 2.65403 52.4328 3.61995 52.4328 4.98104C52.4328 6.34212 53.4076 7.30804 54.795 7.30804C55.4887 7.30804 56.1209 7.05339 56.5249 6.56164L56.2702 6.27187C55.919 6.70214 55.3833 6.91289 54.8038 6.91289C53.7061 6.91289 52.907 6.17527 52.8631 5.08641H56.8059C56.8059 5.0425 56.8146 4.9986 56.8146 4.96347ZM54.6281 3.0404C55.6028 3.0404 56.3229 3.75167 56.3844 4.74394H52.8719C52.9422 3.74289 53.6534 3.0404 54.6281 3.0404ZM61.8083 0.757295V3.75167C61.4395 3.05796 60.7546 2.65403 59.9379 2.65403C58.6471 2.65403 57.6724 3.60239 57.6724 4.98104C57.6724 6.3509 58.6471 7.30804 59.9379 7.30804C60.7634 7.30804 61.4571 6.90411 61.8171 6.19284V7.27292H62.2474V0.757295H61.8083ZM59.9643 6.91289C58.9105 6.91289 58.1202 6.13137 58.1202 4.98104C58.1202 3.8307 58.9105 3.04918 59.9643 3.04918C61.018 3.04918 61.8083 3.8307 61.8083 4.98104C61.8083 6.13137 61.018 6.91289 59.9643 6.91289ZM67.8993 2.65403C67.188 2.65403 66.5206 2.8999 66.064 3.30383L66.2836 3.61995C66.6611 3.27749 67.2319 3.0404 67.8642 3.0404C68.7598 3.0404 69.2252 3.49702 69.2252 4.34879V4.7176H67.6534C66.3801 4.7176 65.9411 5.30594 65.9411 5.99965C65.9411 6.78117 66.5645 7.30804 67.5919 7.30804C68.391 7.30804 68.953 6.98314 69.2428 6.45627V7.27292H69.6643V4.36635C69.6643 3.23358 69.0321 2.65403 67.8993 2.65403ZM67.6534 6.94802C66.8455 6.94802 66.3801 6.57921 66.3801 5.98209C66.3801 5.45522 66.7138 5.06007 67.6622 5.06007H69.2252V5.92062C68.9618 6.57921 68.4262 6.94802 67.6534 6.94802ZM73.5632 6.6758C73.3788 6.84264 73.1242 6.93045 72.8519 6.93045C72.2899 6.93045 72.0002 6.60555 72.0002 6.01721V3.06674H73.4578V2.68915H72.0002V1.6881H71.5611V2.68915H70.7181V3.06674H71.5611V6.06112C71.5611 6.83386 72.0002 7.30804 72.808 7.30804C73.1505 7.30804 73.5193 7.20267 73.7476 6.98314L73.5632 6.6758ZM77.3152 6.86899L79.5807 4.61223C80.3886 3.81314 80.5818 3.29505 80.5818 2.70671C80.5818 1.70566 79.809 1.0822 78.606 1.0822C77.684 1.0822 76.9551 1.38954 76.4897 1.92519L76.8059 2.20619C77.2274 1.72322 77.7981 1.49491 78.5709 1.49491C79.5895 1.49491 80.1251 1.97788 80.1251 2.75062C80.1251 3.21602 79.9846 3.6463 79.2558 4.37513L76.6566 6.9568V7.27292H80.8803V6.86899H77.3152ZM84.0992 7.31682C85.513 7.31682 86.5053 6.12259 86.5053 4.19951C86.5053 2.27644 85.513 1.0822 84.0992 1.0822C82.6855 1.0822 81.6932 2.27644 81.6932 4.19951C81.6932 6.12259 82.6855 7.31682 84.0992 7.31682ZM84.0992 6.90411C82.9401 6.90411 82.141 5.91184 82.141 4.19951C82.141 2.48718 82.9401 1.49491 84.0992 1.49491C85.2583 1.49491 86.0574 2.48718 86.0574 4.19951C86.0574 5.91184 85.2583 6.90411 84.0992 6.90411ZM90.8698 7.31682C91.9675 7.31682 92.5383 6.70214 92.5383 5.464V1.1261H89.8249V1.53004H92.0904V5.464C92.0904 6.44749 91.6865 6.91289 90.8698 6.91289C90.3166 6.91289 89.8424 6.64067 89.5088 6.14015L89.2365 6.43871C89.5878 6.99192 90.2025 7.31682 90.8698 7.31682ZM98.0635 2.68915V5.13031C98.0635 6.21918 97.4225 6.91289 96.3863 6.91289C95.4291 6.91289 94.8759 6.36846 94.8759 5.33228V2.68915H94.4369V5.36741C94.4369 6.64946 95.1833 7.30804 96.3511 7.30804C97.159 7.30804 97.7825 6.93045 98.081 6.28943V7.27292H98.5025V2.68915H98.0635ZM100.364 7.27292H100.803V0.757295H100.364V7.27292ZM104.996 6.86899L107.262 4.61223C108.07 3.81314 108.263 3.29505 108.263 2.70671C108.263 1.70566 107.49 1.0822 106.287 1.0822C105.365 1.0822 104.636 1.38954 104.171 1.92519L104.487 2.20619C104.909 1.72322 105.479 1.49491 106.252 1.49491C107.271 1.49491 107.806 1.97788 107.806 2.75062C107.806 3.21602 107.666 3.6463 106.937 4.37513L104.338 6.9568V7.27292H108.562V6.86899H104.996ZM111.78 7.31682C113.194 7.31682 114.187 6.12259 114.187 4.19951C114.187 2.27644 113.194 1.0822 111.78 1.0822C110.367 1.0822 109.374 2.27644 109.374 4.19951C109.374 6.12259 110.367 7.31682 111.78 7.31682ZM111.78 6.90411C110.621 6.90411 109.822 5.91184 109.822 4.19951C109.822 2.48718 110.621 1.49491 111.78 1.49491C112.94 1.49491 113.739 2.48718 113.739 4.19951C113.739 5.91184 112.94 6.90411 111.78 6.90411ZM115.681 6.86899L117.947 4.61223C118.755 3.81314 118.948 3.29505 118.948 2.70671C118.948 1.70566 118.175 1.0822 116.972 1.0822C116.05 1.0822 115.321 1.38954 114.856 1.92519L115.172 2.20619C115.593 1.72322 116.164 1.49491 116.937 1.49491C117.956 1.49491 118.491 1.97788 118.491 2.75062C118.491 3.21602 118.351 3.6463 117.622 4.37513L115.023 6.9568V7.27292H119.246V6.86899H115.681ZM119.69 1.1261V1.53004H121.191V7.27292H121.639V1.1261H119.69ZM123.584 6.56164C123.374 6.56164 123.216 6.71971 123.216 6.93045C123.216 7.11486 123.33 7.24658 123.505 7.29048L123.216 8.52863H123.532L123.874 7.33439C123.927 7.14998 123.953 7.06217 123.953 6.93045C123.953 6.73727 123.804 6.56164 123.584 6.56164ZM127.738 6.86899L130.004 4.61223C130.812 3.81314 131.005 3.29505 131.005 2.70671C131.005 1.70566 130.232 1.0822 129.029 1.0822C128.107 1.0822 127.378 1.38954 126.913 1.92519L127.229 2.20619C127.65 1.72322 128.221 1.49491 128.994 1.49491C130.013 1.49491 130.548 1.97788 130.548 2.75062C130.548 3.21602 130.408 3.6463 129.679 4.37513L127.08 6.9568V7.27292H131.303V6.86899H127.738ZM132.546 3.40043C132.748 3.40043 132.915 3.23358 132.915 3.02284C132.915 2.81209 132.748 2.65403 132.546 2.65403C132.344 2.65403 132.177 2.81209 132.177 3.02284C132.177 3.23358 132.344 3.40043 132.546 3.40043ZM132.546 7.30804C132.748 7.30804 132.915 7.1412 132.915 6.93045C132.915 6.71971 132.748 6.56164 132.546 6.56164C132.344 6.56164 132.177 6.71971 132.177 6.93045C132.177 7.1412 132.344 7.30804 132.546 7.30804ZM135.779 3.80436L137.623 1.44223V1.1261H133.768V1.53004H137.043L135.226 3.85705V4.18195H135.612C136.841 4.18195 137.403 4.7176 137.403 5.54303C137.403 6.37724 136.815 6.90411 135.709 6.90411C134.866 6.90411 134.146 6.57921 133.768 6.14893L133.54 6.4914C133.97 6.98314 134.804 7.31682 135.709 7.31682C137.122 7.31682 137.86 6.56164 137.86 5.54303C137.86 4.54198 137.175 3.83948 135.779 3.80436ZM141.211 7.31682C142.625 7.31682 143.617 6.12259 143.617 4.19951C143.617 2.27644 142.625 1.0822 141.211 1.0822C139.797 1.0822 138.805 2.27644 138.805 4.19951C138.805 6.12259 139.797 7.31682 141.211 7.31682ZM141.211 6.90411C140.052 6.90411 139.253 5.91184 139.253 4.19951C139.253 2.48718 140.052 1.49491 141.211 1.49491C142.37 1.49491 143.169 2.48718 143.169 4.19951C143.169 5.91184 142.37 6.90411 141.211 6.90411ZM149.633 1.1261H147.428V7.27292H147.876V5.26203H149.633C151.178 5.26203 152.109 4.48929 152.109 3.19846C152.109 1.89885 151.178 1.1261 149.633 1.1261ZM149.633 4.8581H147.876V1.53004H149.633C150.95 1.53004 151.652 2.13594 151.652 3.19846C151.652 4.2522 150.95 4.8581 149.633 4.8581ZM159.872 7.27292L159.863 1.1261H159.494L156.746 5.87671L153.997 1.1261H153.62V7.27292H154.059V2.03056L156.632 6.45627H156.851L159.424 2.013L159.433 7.27292H159.872ZM166.87 7.31682C167.739 7.31682 168.521 7.02705 169.056 6.45627L168.775 6.16649C168.248 6.68458 167.607 6.90411 166.887 6.90411C165.315 6.90411 164.13 5.745 164.13 4.19951C164.13 2.65403 165.315 1.49491 166.887 1.49491C167.607 1.49491 168.248 1.70566 168.775 2.22375L169.056 1.93397C168.521 1.3632 167.739 1.0822 166.87 1.0822C165.043 1.0822 163.682 2.40815 163.682 4.19951C163.682 5.99087 165.043 7.31682 166.87 7.31682ZM172.655 2.65403C171.803 2.65403 171.171 3.02284 170.855 3.6463V0.757295H170.416V7.27292H170.855V4.83176C170.855 3.74289 171.513 3.04918 172.593 3.04918C173.524 3.04918 174.077 3.59361 174.077 4.62979V7.27292H174.517V4.59466C174.517 3.31261 173.77 2.65403 172.655 2.65403ZM177.87 2.65403C177.158 2.65403 176.491 2.8999 176.034 3.30383L176.254 3.61995C176.631 3.27749 177.202 3.0404 177.835 3.0404C178.73 3.0404 179.196 3.49702 179.196 4.34879V4.7176H177.624C176.35 4.7176 175.911 5.30594 175.911 5.99965C175.911 6.78117 176.535 7.30804 177.562 7.30804C178.361 7.30804 178.923 6.98314 179.213 6.45627V7.27292H179.635V4.36635C179.635 3.23358 179.002 2.65403 177.87 2.65403ZM177.624 6.94802C176.816 6.94802 176.35 6.57921 176.35 5.98209C176.35 5.45522 176.684 5.06007 177.633 5.06007H179.196V5.92062C178.932 6.57921 178.396 6.94802 177.624 6.94802ZM181.865 3.6902V2.68915H181.444V7.27292H181.883V4.88444C181.883 3.75167 182.489 3.07552 183.507 3.07552C183.542 3.07552 183.577 3.0843 183.613 3.0843V2.65403C182.752 2.65403 182.146 3.02284 181.865 3.6902ZM187.118 6.6758C186.934 6.84264 186.679 6.93045 186.407 6.93045C185.845 6.93045 185.555 6.60555 185.555 6.01721V3.06674H187.013V2.68915H185.555V1.6881H185.116V2.68915H184.273V3.06674H185.116V6.06112C185.116 6.83386 185.555 7.30804 186.363 7.30804C186.705 7.30804 187.074 7.20267 187.302 6.98314L187.118 6.6758Z" fill="black"/>
</svg>
