<svg width="16" height="13" viewBox="0 0 16 13" fill="none" xmlns="http://www.w3.org/2000/svg">
<path fill-rule="evenodd" clip-rule="evenodd" d="M2.79305 1.44785C2.79305 1.17842 3.01147 0.960007 3.28089 0.960007H5.28968C5.55911 0.960007 5.77752 1.17842 5.77752 1.44785V2.07893C5.77752 2.34836 5.99594 2.56678 6.26537 2.56678H10.34C10.6095 2.56678 10.8279 2.34836 10.8279 2.07893V1.44785C10.8279 1.17842 11.0463 0.960007 11.3157 0.960007H13.3245C13.5939 0.960007 13.8123 1.17842 13.8123 1.44785V2.07893C13.8123 2.34836 14.0308 2.56678 14.3002 2.56678H15.3907C15.6602 2.56678 15.8786 2.78519 15.8786 3.05462V12.1802C15.8786 12.4496 15.6602 12.6681 15.3907 12.6681H1.2145C0.945069 12.6681 0.726654 12.4496 0.726654 12.1802V3.05462C0.726654 2.78519 0.945069 2.56678 1.2145 2.56678H2.30521C2.57464 2.56678 2.79305 2.34836 2.79305 2.07893V1.44785ZM3.51002 4.1272H5.14149V4.4151H3.51002V4.1272ZM12.531 3.45562V4.1277H13.2024V4.41561H12.531V5.08709H12.243V4.41561H11.5709V4.1277H12.243V3.45562H12.531Z" fill="#5CE3B5"/>
</svg>
