<svg width="31" height="9" viewBox="0 0 31 9" fill="none" xmlns="http://www.w3.org/2000/svg">
<path d="M4.36227 8.453C5.59651 8.453 6.6483 8.01296 7.34591 7.19729L6.44438 6.33869C5.89702 6.93971 5.22087 7.22949 4.43739 7.22949C2.88118 7.22949 1.75426 6.13477 1.75426 4.58929C1.75426 3.0438 2.88118 1.94908 4.43739 1.94908C5.22087 1.94908 5.89702 2.23886 6.44438 2.82915L7.34591 1.98128C6.6483 1.16561 5.59651 0.725574 4.373 0.725574C2.0655 0.725574 0.3483 2.34619 0.3483 4.58929C0.3483 6.83239 2.0655 8.453 4.36227 8.453ZM11.8059 2.5501C11.0117 2.5501 10.3356 2.80769 9.89556 3.27992V0.382133H8.55399V8.34567H9.89556V5.44789C9.89556 4.29951 10.5395 3.71995 11.4947 3.71995C12.3533 3.71995 12.8577 4.21365 12.8577 5.23324V8.34567H14.1993V5.06152C14.1993 3.33358 13.1797 2.5501 11.8059 2.5501ZM18.0906 2.5501C17.1676 2.5501 16.2768 2.78622 15.665 3.25845L16.1909 4.23511C16.6202 3.88094 17.2857 3.66629 17.9296 3.66629C18.8848 3.66629 19.357 4.12779 19.357 4.91126V4.99712H17.876C16.1373 4.99712 15.4933 5.7484 15.4933 6.7036C15.4933 7.70172 16.3197 8.4208 17.6291 8.4208C18.4877 8.4208 19.1102 8.14175 19.4322 7.64806V8.34567H20.6986V4.98639C20.6986 3.33358 19.7434 2.5501 18.0906 2.5501ZM17.9081 7.44414C17.2213 7.44414 16.8134 7.1329 16.8134 6.64993C16.8134 6.23136 17.0603 5.88792 17.9725 5.88792H19.357V6.55334C19.1317 7.14363 18.5628 7.44414 17.9081 7.44414ZM23.6975 3.45164V2.6145H22.4203V8.34567H23.7619V5.56595C23.7619 4.3961 24.4059 3.79508 25.4254 3.79508C25.522 3.79508 25.6186 3.80581 25.7367 3.82728V2.5501C24.7815 2.5501 24.0839 2.85062 23.6975 3.45164ZM30.1539 7.07923C29.95 7.24022 29.6817 7.31535 29.4026 7.31535C28.8874 7.31535 28.6084 7.01484 28.6084 6.45675V3.73068H30.1432V2.65743H28.6084V1.34806H27.2668V2.65743H26.3224V3.73068H27.2668V6.48894C27.2668 7.75538 27.9859 8.4208 29.2416 8.4208C29.7246 8.4208 30.2075 8.29201 30.5295 8.03443L30.1539 7.07923Z" fill="white"/>
</svg>
