<svg width="12" height="12" viewBox="0 0 12 12" fill="none" xmlns="http://www.w3.org/2000/svg">
<path d="M1.20433 10.4609C4.28875 10.4609 7.3531 10.4609 10.4375 10.4609C10.4375 10.4107 10.4375 10.3639 10.4375 10.3137C10.4375 8.83485 10.4375 7.35267 10.4375 5.87384C10.4375 5.53591 10.665 5.27494 10.9795 5.24483C11.3307 5.21137 11.6352 5.48238 11.6385 5.84372C11.6419 6.2954 11.6385 6.74708 11.6385 7.19876C11.6385 8.32629 11.6385 9.45716 11.6385 10.5847C11.6385 11.2472 11.2203 11.6654 10.558 11.6654C7.3966 11.6654 4.23523 11.6654 1.07721 11.6654C0.41817 11.6687 0 11.2505 0 10.588C0 9.01552 0 7.443 0 5.87049C0 5.43889 0.384717 5.1478 0.782815 5.2716C1.04041 5.3519 1.20433 5.58275 1.20433 5.87384C1.20433 6.76381 1.20433 7.65379 1.20433 8.54711C1.20433 9.13597 1.20433 9.72482 1.20433 10.317C1.20433 10.3605 1.20433 10.4074 1.20433 10.4609Z" fill="black"/>
<path d="M5.21876 7.19541C5.21876 7.1285 5.21876 7.08166 5.21876 7.03816C5.21876 4.9136 5.21876 2.78903 5.21876 0.664464C5.21876 0.293083 5.4797 0.0220755 5.82762 0.0254213C6.14208 0.028767 6.40302 0.2797 6.41975 0.594203C6.42309 0.644389 6.41975 0.694576 6.41975 0.744763C6.41975 2.83922 6.41975 4.93367 6.41975 7.03147C6.41975 7.07831 6.41975 7.12181 6.41975 7.19876C6.46658 7.15527 6.49669 7.1285 6.5268 7.09839C6.90148 6.72366 7.27616 6.34559 7.65419 5.97421C7.99207 5.64298 8.53402 5.77681 8.66114 6.21845C8.72805 6.44931 8.67118 6.65675 8.50056 6.82738C8.23294 7.09839 7.96196 7.36605 7.69433 7.63371C7.22933 8.09877 6.76767 8.56384 6.30266 9.02555C5.98485 9.3434 5.65032 9.3434 5.32916 9.02221C4.60322 8.29617 3.87393 7.5668 3.14799 6.84076C2.89708 6.58983 2.87701 6.24187 3.09111 5.99428C3.32529 5.72662 3.7167 5.71324 3.98098 5.97421C4.35901 6.34559 4.73369 6.72366 5.10837 7.09839C5.14182 7.12515 5.17193 7.15192 5.21876 7.19541Z" fill="black"/>
</svg>
