<svg width="109" height="11" viewBox="0 0 109 11" fill="none" xmlns="http://www.w3.org/2000/svg">
<path d="M1.74906 2.07284V4.35887H5.37665V5.53945H1.74906V8.41577H0.353829V0.902998H5.83815V2.07284H1.74906ZM7.05864 0.452232H8.40021V8.41577H7.05864V0.452232ZM15.5487 5.58238C15.5487 5.6754 15.5416 5.80777 15.5273 5.97949H11.0304C11.1091 6.40163 11.313 6.73792 11.6421 6.98834C11.9784 7.23162 12.3934 7.35325 12.8871 7.35325C13.5167 7.35325 14.0355 7.14576 14.4433 6.73076L15.1624 7.55717C14.9048 7.86483 14.5792 8.09737 14.1857 8.25478C13.7922 8.41219 13.3486 8.4909 12.8549 8.4909C12.2252 8.4909 11.6707 8.36569 11.1913 8.11526C10.712 7.86483 10.3399 7.51782 10.0752 7.0742C9.81758 6.62344 9.68878 6.11543 9.68878 5.55019C9.68878 4.99209 9.814 4.49124 10.0644 4.04763C10.322 3.59686 10.6762 3.24627 11.1269 2.99584C11.5777 2.74542 12.0857 2.6202 12.651 2.6202C13.2091 2.6202 13.7063 2.74542 14.1428 2.99584C14.5864 3.23911 14.9298 3.58613 15.1731 4.0369C15.4235 4.48051 15.5487 4.99567 15.5487 5.58238ZM12.651 3.69346C12.2217 3.69346 11.8568 3.82225 11.5562 4.07983C11.2629 4.33025 11.084 4.66654 11.0196 5.08869H14.2716C14.2143 4.67369 14.039 4.33741 13.7457 4.07983C13.4523 3.82225 13.0874 3.69346 12.651 3.69346ZM22.2251 5.58238C22.2251 5.6754 22.218 5.80777 22.2037 5.97949H17.7067C17.7854 6.40163 17.9894 6.73792 18.3185 6.98834C18.6548 7.23162 19.0698 7.35325 19.5635 7.35325C20.1931 7.35325 20.7119 7.14576 21.1197 6.73076L21.8388 7.55717C21.5812 7.86483 21.2556 8.09737 20.8621 8.25478C20.4686 8.41219 20.025 8.4909 19.5313 8.4909C18.9016 8.4909 18.3471 8.36569 17.8677 8.11526C17.3883 7.86483 17.0163 7.51782 16.7515 7.0742C16.494 6.62344 16.3652 6.11543 16.3652 5.55019C16.3652 4.99209 16.4904 4.49124 16.7408 4.04763C16.9984 3.59686 17.3526 3.24627 17.8033 2.99584C18.2541 2.74542 18.7621 2.6202 19.3274 2.6202C19.8854 2.6202 20.3827 2.74542 20.8192 2.99584C21.2628 3.23911 21.6062 3.58613 21.8495 4.0369C22.0999 4.48051 22.2251 4.99567 22.2251 5.58238ZM19.3274 3.69346C18.8981 3.69346 18.5331 3.82225 18.2326 4.07983C17.9393 4.33025 17.7604 4.66654 17.696 5.08869H20.948C20.8907 4.67369 20.7154 4.33741 20.4221 4.07983C20.1287 3.82225 19.7638 3.69346 19.3274 3.69346ZM26.9589 8.10453C26.8015 8.23332 26.6083 8.32991 26.3794 8.39431C26.1576 8.4587 25.9215 8.4909 25.671 8.4909C25.0414 8.4909 24.5549 8.32633 24.2114 7.9972C23.868 7.66807 23.6962 7.18869 23.6962 6.55904V3.80078H22.7518V2.72753H23.6962V1.41816H25.0378V2.72753H26.5726V3.80078H25.0378V6.52685C25.0378 6.80589 25.1058 7.02054 25.2417 7.1708C25.3777 7.3139 25.5744 7.38545 25.832 7.38545C26.1325 7.38545 26.383 7.30674 26.5833 7.14933L26.9589 8.10453ZM34.6348 8.5231C33.8764 8.5231 33.1895 8.35853 32.5741 8.0294C31.966 7.69311 31.4866 7.23162 31.136 6.6449C30.7925 6.05819 30.6208 5.39635 30.6208 4.65938C30.6208 3.92242 30.7961 3.26058 31.1467 2.67387C31.4973 2.08715 31.9767 1.62923 32.5849 1.3001C33.2002 0.963816 33.8871 0.795673 34.6455 0.795673C35.2609 0.795673 35.8225 0.902998 36.3305 1.11765C36.8385 1.3323 37.2678 1.64354 37.6184 2.05138L36.7169 2.89925C36.1731 2.31254 35.5041 2.01918 34.7099 2.01918C34.1948 2.01918 33.7333 2.13366 33.3254 2.36262C32.9176 2.58443 32.5992 2.89567 32.3702 3.29635C32.1413 3.69703 32.0268 4.15138 32.0268 4.65938C32.0268 5.16739 32.1413 5.62174 32.3702 6.02242C32.5992 6.4231 32.9176 6.73792 33.3254 6.96688C33.7333 7.18869 34.1948 7.29959 34.7099 7.29959C35.5041 7.29959 36.1731 7.00265 36.7169 6.40879L37.6184 7.26739C37.2678 7.67523 36.835 7.98647 36.3198 8.20112C35.8118 8.41577 35.2501 8.5231 34.6348 8.5231ZM42.0785 2.6202C42.8011 2.6202 43.3807 2.83128 43.8171 3.25342C44.2536 3.67557 44.4718 4.30163 44.4718 5.13162V8.41577H43.1303V5.30334C43.1303 4.80249 43.0122 4.42685 42.7761 4.17642C42.54 3.91884 42.2037 3.79005 41.7672 3.79005C41.2735 3.79005 40.8836 3.94031 40.5974 4.24082C40.3112 4.53417 40.1681 4.9599 40.1681 5.51799V8.41577H38.8265V0.452232H40.1681V3.35002C40.3899 3.1139 40.6618 2.93502 40.9838 2.81339C41.3129 2.6846 41.6778 2.6202 42.0785 2.6202ZM48.3631 2.6202C49.2074 2.6202 49.8514 2.82412 50.295 3.23196C50.7458 3.63264 50.9711 4.24082 50.9711 5.05649V8.41577H49.7047V7.71816C49.5401 7.96858 49.304 8.16177 48.9963 8.29771C48.6958 8.4265 48.3309 8.4909 47.9016 8.4909C47.4723 8.4909 47.0967 8.41935 46.7747 8.27625C46.4527 8.12599 46.2023 7.92207 46.0234 7.66449C45.8517 7.39976 45.7659 7.10282 45.7659 6.77369C45.7659 6.25853 45.9555 5.84712 46.3347 5.53945C46.7211 5.22463 47.3257 5.06722 48.1485 5.06722H49.6296V4.98136C49.6296 4.58068 49.5079 4.27301 49.2647 4.05836C49.0285 3.84371 48.6744 3.73639 48.2021 3.73639C47.8802 3.73639 47.5618 3.78647 47.2469 3.88664C46.9393 3.98681 46.6781 4.12634 46.4635 4.30521L45.9376 3.32855C46.2381 3.09959 46.5994 2.92429 47.0216 2.80266C47.4437 2.68102 47.8909 2.6202 48.3631 2.6202ZM48.1807 7.51424C48.517 7.51424 48.8139 7.43911 49.0715 7.28886C49.3362 7.13145 49.5222 6.90964 49.6296 6.62344V5.95802H48.2451C47.4723 5.95802 47.086 6.21202 47.086 6.72003C47.086 6.9633 47.1826 7.15649 47.3757 7.29959C47.5689 7.44269 47.8372 7.51424 48.1807 7.51424ZM53.97 3.52174C54.3564 2.92071 55.0361 2.6202 56.0092 2.6202V3.89737C55.8947 3.87591 55.791 3.86518 55.698 3.86518C55.1757 3.86518 54.7678 4.01901 54.4745 4.32668C54.1811 4.62719 54.0344 5.06364 54.0344 5.63605V8.41577H52.6929V2.6846H53.97V3.52174ZM62.7831 2.6846V7.54644C62.7831 9.56415 61.7528 10.573 59.6922 10.573C59.1412 10.573 58.6189 10.5015 58.1252 10.3584C57.6315 10.2224 57.2237 10.0221 56.9017 9.75734L57.5027 8.74848C57.7531 8.95598 58.068 9.12054 58.4472 9.24218C58.8336 9.37097 59.2235 9.43536 59.617 9.43536C60.2467 9.43536 60.7082 9.29226 61.0015 9.00606C61.2949 8.71986 61.4416 8.2834 61.4416 7.69669V7.39618C61.2126 7.64661 60.9336 7.83621 60.6044 7.96501C60.2753 8.0938 59.914 8.15819 59.5204 8.15819C58.9767 8.15819 58.483 8.04371 58.0393 7.81475C57.6029 7.57863 57.2559 7.2495 56.9983 6.82736C56.7479 6.40521 56.6227 5.92225 56.6227 5.37846C56.6227 4.83468 56.7479 4.3553 56.9983 3.94031C57.2559 3.51816 57.6029 3.19261 58.0393 2.96364C58.483 2.73468 58.9767 2.6202 59.5204 2.6202C59.9354 2.6202 60.3111 2.68818 60.6474 2.82412C60.9908 2.96007 61.277 3.16756 61.506 3.44661V2.6846H62.7831ZM59.7244 7.02054C60.2324 7.02054 60.6474 6.87029 60.9693 6.56978C61.2985 6.26211 61.463 5.86501 61.463 5.37846C61.463 4.89908 61.2985 4.50913 60.9693 4.20862C60.6474 3.90811 60.2324 3.75785 59.7244 3.75785C59.2092 3.75785 58.787 3.90811 58.4579 4.20862C58.1359 4.50913 57.975 4.89908 57.975 5.37846C57.975 5.86501 58.1359 6.26211 58.4579 6.56978C58.787 6.87029 59.2092 7.02054 59.7244 7.02054ZM69.9346 5.58238C69.9346 5.6754 69.9274 5.80777 69.9131 5.97949H65.4162C65.4949 6.40163 65.6988 6.73792 66.028 6.98834C66.3642 7.23162 66.7792 7.35325 67.2729 7.35325C67.9026 7.35325 68.4213 7.14576 68.8291 6.73076L69.5482 7.55717C69.2906 7.86483 68.9651 8.09737 68.5716 8.25478C68.178 8.41219 67.7344 8.4909 67.2407 8.4909C66.6111 8.4909 66.0566 8.36569 65.5772 8.11526C65.0978 7.86483 64.7257 7.51782 64.461 7.0742C64.2034 6.62344 64.0746 6.11543 64.0746 5.55019C64.0746 4.99209 64.1999 4.49124 64.4503 4.04763C64.7079 3.59686 65.062 3.24627 65.5128 2.99584C65.9636 2.74542 66.4716 2.6202 67.0368 2.6202C67.5949 2.6202 68.0922 2.74542 68.5286 2.99584C68.9723 3.23911 69.3157 3.58613 69.559 4.0369C69.8094 4.48051 69.9346 4.99567 69.9346 5.58238ZM67.0368 3.69346C66.6075 3.69346 66.2426 3.82225 65.9421 4.07983C65.6487 4.33025 65.4699 4.66654 65.4055 5.08869H68.6574C68.6002 4.67369 68.4249 4.33741 68.1315 4.07983C67.8382 3.82225 67.4733 3.69346 67.0368 3.69346ZM76.6471 8.5231C76.0676 8.5231 75.5059 8.44081 74.9621 8.27625C74.4255 8.11168 73.9998 7.89345 73.6849 7.62156L74.1679 6.53758C74.4756 6.78085 74.8512 6.98119 75.2948 7.1386C75.7456 7.28886 76.1964 7.36398 76.6471 7.36398C77.2052 7.36398 77.6202 7.27455 77.8921 7.09567C78.1711 6.91679 78.3107 6.68068 78.3107 6.38732C78.3107 6.17267 78.232 5.99737 78.0746 5.86143C77.9243 5.71833 77.7311 5.60743 77.495 5.52872C77.2589 5.45001 76.9369 5.36058 76.5291 5.26041C75.9567 5.12446 75.4916 4.98852 75.1338 4.85257C74.7832 4.71663 74.4792 4.50555 74.2216 4.21935C73.9712 3.926 73.8459 3.53247 73.8459 3.03877C73.8459 2.62378 73.9568 2.24814 74.1786 1.91186C74.4076 1.56842 74.7475 1.29652 75.1982 1.09618C75.6562 0.895843 76.2142 0.795673 76.8725 0.795673C77.3304 0.795673 77.7812 0.852913 78.2248 0.967394C78.6684 1.08187 79.0512 1.24644 79.3732 1.46109L78.9332 2.54508C78.604 2.35189 78.2606 2.20521 77.9028 2.10504C77.5451 2.00487 77.1981 1.95479 76.8618 1.95479C76.3108 1.95479 75.8994 2.0478 75.6275 2.23383C75.3628 2.41986 75.2304 2.66671 75.2304 2.97438C75.2304 3.18903 75.3056 3.36433 75.4558 3.50027C75.6132 3.63622 75.81 3.74354 76.0461 3.82225C76.2822 3.90095 76.6042 3.99039 77.012 4.09056C77.5701 4.21935 78.028 4.3553 78.3858 4.4984C78.7435 4.63434 79.0476 4.84542 79.2981 5.13162C79.5556 5.41782 79.6844 5.80419 79.6844 6.29073C79.6844 6.70572 79.57 7.08136 79.341 7.41765C79.1192 7.75393 78.7793 8.02225 78.3214 8.22259C77.8635 8.42293 77.3054 8.5231 76.6471 8.5231ZM84.3843 8.10453C84.2269 8.23332 84.0337 8.32991 83.8047 8.39431C83.5829 8.4587 83.3468 8.4909 83.0964 8.4909C82.4667 8.4909 81.9802 8.32633 81.6367 7.9972C81.2933 7.66807 81.1216 7.18869 81.1216 6.55904V3.80078H80.1771V2.72753H81.1216V1.41816H82.4632V2.72753H83.9979V3.80078H82.4632V6.52685C82.4632 6.80589 82.5311 7.02054 82.6671 7.1708C82.803 7.3139 82.9998 7.38545 83.2574 7.38545C83.5579 7.38545 83.8083 7.30674 84.0086 7.14933L84.3843 8.10453ZM87.6773 2.6202C88.5216 2.6202 89.1656 2.82412 89.6092 3.23196C90.0599 3.63264 90.2853 4.24082 90.2853 5.05649V8.41577H89.0189V7.71816C88.8543 7.96858 88.6182 8.16177 88.3105 8.29771C88.01 8.4265 87.6451 8.4909 87.2158 8.4909C86.7865 8.4909 86.4109 8.41935 86.0889 8.27625C85.7669 8.12599 85.5165 7.92207 85.3376 7.66449C85.1659 7.39976 85.08 7.10282 85.08 6.77369C85.08 6.25853 85.2697 5.84712 85.6489 5.53945C86.0352 5.22463 86.6398 5.06722 87.4627 5.06722H88.9438V4.98136C88.9438 4.58068 88.8221 4.27301 88.5788 4.05836C88.3427 3.84371 87.9886 3.73639 87.5163 3.73639C87.1944 3.73639 86.876 3.78647 86.5611 3.88664C86.2535 3.98681 85.9923 4.12634 85.7777 4.30521L85.2518 3.32855C85.5523 3.09959 85.9136 2.92429 86.3357 2.80266C86.7579 2.68102 87.2051 2.6202 87.6773 2.6202ZM87.4949 7.51424C87.8311 7.51424 88.1281 7.43911 88.3857 7.28886C88.6504 7.13145 88.8364 6.90964 88.9438 6.62344V5.95802H87.5593C86.7865 5.95802 86.4001 6.21202 86.4001 6.72003C86.4001 6.9633 86.4967 7.15649 86.6899 7.29959C86.8831 7.44269 87.1514 7.51424 87.4949 7.51424ZM95.4522 8.10453C95.2948 8.23332 95.1016 8.32991 94.8726 8.39431C94.6508 8.4587 94.4147 8.4909 94.1643 8.4909C93.5347 8.4909 93.0481 8.32633 92.7047 7.9972C92.3612 7.66807 92.1895 7.18869 92.1895 6.55904V3.80078H91.245V2.72753H92.1895V1.41816H93.5311V2.72753H95.0658V3.80078H93.5311V6.52685C93.5311 6.80589 93.5991 7.02054 93.735 7.1708C93.8709 7.3139 94.0677 7.38545 94.3253 7.38545C94.6258 7.38545 94.8762 7.30674 95.0766 7.14933L95.4522 8.10453ZM102.105 2.6846V8.41577H100.827V7.68596C100.613 7.94354 100.344 8.14388 100.022 8.28698C99.7004 8.42293 99.3534 8.4909 98.9814 8.4909C98.2158 8.4909 97.6112 8.27983 97.1676 7.85768C96.7311 7.42838 96.5129 6.79516 96.5129 5.95802V2.6846H97.8544V5.77557C97.8544 6.29073 97.9689 6.6771 98.1979 6.93468C98.434 7.18511 98.7667 7.31032 99.196 7.31032C99.6754 7.31032 100.055 7.16364 100.334 6.87029C100.62 6.56978 100.763 6.14047 100.763 5.58238V2.6846H102.105ZM105.632 8.4909C105.167 8.4909 104.713 8.43008 104.269 8.30845C103.825 8.18681 103.471 8.03298 103.206 7.84695L103.722 6.82736C103.979 6.99908 104.287 7.1386 104.645 7.24593C105.009 7.3461 105.367 7.39618 105.718 7.39618C106.519 7.39618 106.92 7.18511 106.92 6.76296C106.92 6.56262 106.816 6.4231 106.609 6.34439C106.408 6.26569 106.083 6.19056 105.632 6.11901C105.16 6.04746 104.773 5.96518 104.473 5.87216C104.179 5.77915 103.922 5.61816 103.7 5.3892C103.485 5.15308 103.378 4.82753 103.378 4.41254C103.378 3.86875 103.603 3.43588 104.054 3.1139C104.512 2.78477 105.127 2.6202 105.9 2.6202C106.294 2.6202 106.687 2.66671 107.081 2.75973C107.474 2.84559 107.796 2.96364 108.047 3.1139L107.532 4.13349C107.045 3.84729 106.498 3.70419 105.89 3.70419C105.496 3.70419 105.195 3.76501 104.988 3.88664C104.788 4.00112 104.687 4.15496 104.687 4.34814C104.687 4.56279 104.795 4.71663 105.009 4.80964C105.231 4.8955 105.571 4.97778 106.029 5.05649C106.487 5.12804 106.863 5.21032 107.156 5.30334C107.449 5.39635 107.7 5.55376 107.907 5.77557C108.122 5.99737 108.229 6.3122 108.229 6.72003C108.229 7.25666 107.997 7.68596 107.532 8.00794C107.067 8.32991 106.433 8.4909 105.632 8.4909Z" fill="black"/>
</svg>
