<svg width="30" height="9" viewBox="0 0 30 9" fill="none" xmlns="http://www.w3.org/2000/svg">
<path d="M2.80381 2.01348H0.313865V0.832899H6.68899V2.01348H4.19904V8.34567H2.80381V2.01348ZM9.49278 2.5501C10.3371 2.5501 10.981 2.75402 11.4246 3.16186C11.8754 3.56254 12.1008 4.17072 12.1008 4.98639V8.34567H10.8343V7.64806C10.6698 7.89848 10.4337 8.09167 10.126 8.22761C9.82549 8.35641 9.46058 8.4208 9.03128 8.4208C8.60198 8.4208 8.22634 8.34925 7.90437 8.20615C7.58239 8.05589 7.33196 7.85198 7.15309 7.5944C6.98137 7.32966 6.89551 7.03273 6.89551 6.7036C6.89551 6.18843 7.08512 5.77702 7.46433 5.46935C7.8507 5.15453 8.4553 4.99712 9.27813 4.99712H10.7592V4.91126C10.7592 4.51058 10.6376 4.20291 10.3943 3.98826C10.1582 3.77361 9.80402 3.66629 9.33179 3.66629C9.00982 3.66629 8.69142 3.71637 8.3766 3.81654C8.06893 3.91671 7.80777 4.05624 7.59312 4.23511L7.06723 3.25845C7.36774 3.02949 7.72907 2.85419 8.15121 2.73256C8.57336 2.61092 9.02055 2.5501 9.49278 2.5501ZM9.31033 7.44414C9.64661 7.44414 9.94355 7.36901 10.2011 7.21876C10.4659 7.06135 10.6519 6.83954 10.7592 6.55334V5.88792H9.37472C8.60198 5.88792 8.21561 6.14193 8.21561 6.64993C8.21561 6.8932 8.3122 7.08639 8.50539 7.22949C8.69857 7.37259 8.96689 7.44414 9.31033 7.44414ZM16.9993 2.5501C17.5574 2.5501 18.0547 2.67174 18.4912 2.91501C18.9348 3.15828 19.2818 3.50172 19.5322 3.94533C19.7827 4.38895 19.9079 4.90053 19.9079 5.48009C19.9079 6.05964 19.7827 6.5748 19.5322 7.02557C19.2818 7.46918 18.9348 7.81262 18.4912 8.05589C18.0547 8.29916 17.5574 8.4208 16.9993 8.4208C16.6058 8.4208 16.2445 8.35283 15.9154 8.21688C15.5934 8.08094 15.3215 7.87702 15.0997 7.60513V8.34567H13.8225V0.382133H15.1641V3.31211C15.393 3.06169 15.6614 2.87208 15.969 2.74329C16.2838 2.6145 16.6273 2.5501 16.9993 2.5501ZM16.8491 7.27242C17.3428 7.27242 17.747 7.10785 18.0619 6.77872C18.3838 6.44959 18.5448 6.01671 18.5448 5.48009C18.5448 4.94346 18.3838 4.51058 18.0619 4.18145C17.747 3.85232 17.3428 3.68775 16.8491 3.68775C16.5271 3.68775 16.2373 3.76288 15.9798 3.91314C15.7222 4.05624 15.5183 4.26373 15.368 4.53562C15.2177 4.80751 15.1426 5.12234 15.1426 5.48009C15.1426 5.83784 15.2177 6.15266 15.368 6.42455C15.5183 6.69644 15.7222 6.90751 15.9798 7.05777C16.2373 7.20087 16.5271 7.27242 16.8491 7.27242ZM21.1802 0.382133H22.5217V8.34567H21.1802V0.382133ZM29.6703 5.51228C29.6703 5.6053 29.6631 5.73767 29.6488 5.90939H25.1519C25.2306 6.33153 25.4345 6.66782 25.7636 6.91825C26.0999 7.16152 26.5149 7.28315 27.0086 7.28315C27.6383 7.28315 28.157 7.07566 28.5648 6.66066L29.2839 7.48707C29.0263 7.79474 28.7008 8.02727 28.3072 8.18468C27.9137 8.3421 27.4701 8.4208 26.9764 8.4208C26.3468 8.4208 25.7923 8.29559 25.3129 8.04516C24.8335 7.79474 24.4614 7.44772 24.1967 7.00411C23.9391 6.55334 23.8103 6.04533 23.8103 5.48009C23.8103 4.92199 23.9355 4.42114 24.186 3.97753C24.4435 3.52677 24.7977 3.17617 25.2485 2.92574C25.6992 2.67532 26.2072 2.5501 26.7725 2.5501C27.3306 2.5501 27.8279 2.67532 28.2643 2.92574C28.7079 3.16901 29.0514 3.51603 29.2946 3.9668C29.5451 4.41041 29.6703 4.92557 29.6703 5.51228ZM26.7725 3.62336C26.3432 3.62336 25.9783 3.75215 25.6778 4.00973C25.3844 4.26016 25.2055 4.59644 25.1411 5.01859H28.3931C28.3359 4.6036 28.1606 4.26731 27.8672 4.00973C27.5739 3.75215 27.2089 3.62336 26.7725 3.62336Z" fill="#3E9DCF"/>
</svg>
