<svg width="17" height="17" viewBox="0 0 17 17" fill="none" xmlns="http://www.w3.org/2000/svg">
<path d="M8.99964 17C8.66737 17 8.33582 17 8.00355 17C7.96111 16.9907 7.91868 16.9756 7.87553 16.9727C6.68957 16.89 5.56187 16.5872 4.52622 16.0069C1.7343 14.4421 0.216787 12.0524 0.0161302 8.85523C-0.0701736 7.48027 0.189457 6.14846 0.804372 4.91372C2.31253 1.88694 4.77003 0.238715 8.14523 0.0172258C9.67712 -0.0834512 11.14 0.258851 12.4878 1.00026C14.8841 2.31913 16.3498 4.33052 16.8662 7.02147C16.9281 7.34507 16.9561 7.67587 17 8.00307C17 8.33531 17 8.66682 17 8.99905C16.9907 9.04652 16.9748 9.09398 16.972 9.14216C16.8892 10.3337 16.5735 11.462 15.9946 12.5041C14.6676 14.8937 12.6582 16.3585 9.96552 16.867C9.64692 16.9274 9.32184 16.9561 8.99964 17ZM8.49548 14.7765C9.99141 14.7599 11.3219 14.2846 12.4856 13.3404C12.8279 13.0628 12.9948 12.7097 12.979 12.2711C12.9221 10.7206 11.6815 9.54271 10.0907 9.53408C9.03416 9.52905 7.97766 9.52977 6.92187 9.53408C5.39573 9.54055 4.22919 10.5689 4.03429 12.0798C3.97244 12.5587 4.08535 12.9837 4.47013 13.303C5.63667 14.2695 6.98013 14.7585 8.49548 14.7765ZM5.69061 5.35958C5.69924 6.90929 6.95927 8.16775 8.50267 8.16703C10.0518 8.16631 11.3342 6.87837 11.3147 5.34304C11.2953 3.78398 10.0382 2.53918 8.49404 2.54853C6.93841 2.55716 5.68198 3.81778 5.69061 5.35958Z" fill="#C4C4C4"/>
</svg>
