<svg width="13" height="18" viewBox="0 0 13 18" fill="none" xmlns="http://www.w3.org/2000/svg">
<path d="M12.9962 9.14715C12.9755 12.0096 10.9627 14.4708 8.07348 15.174C7.98755 15.1952 7.90093 15.2157 7.84387 15.2295C7.84387 16.1634 7.76894 17.0907 7.82188 18.0008H5.2172C5.19108 17.4053 5.21376 16.8038 5.20139 16.207C5.19658 15.9552 5.19039 15.7021 5.20483 15.4503C5.21376 15.287 5.16014 15.221 4.99035 15.1793C2.8057 14.6413 1.28854 13.3598 0.437497 11.3546C0.142589 10.6613 0.00716516 9.93364 0.00304057 9.18548C-0.00245887 8.12868 -0.00039658 7.07188 0.00166571 6.01508C0.00304057 5.46057 0.340569 5.14201 0.924885 5.13936C1.42396 5.13738 1.92372 5.1387 2.46129 5.1387V4.87632C2.46198 3.63843 2.45511 2.39988 2.46473 1.16198C2.47092 0.398627 3.19409 -0.136713 3.96264 0.0338024C4.42734 0.136905 4.80887 0.542045 4.87624 1.01262C4.8948 1.1448 4.89892 1.28029 4.89961 1.41379C4.90098 2.54924 4.9003 3.68535 4.9003 4.8208V5.1202H8.11472V4.84394C8.11472 3.61331 8.10716 2.38269 8.11885 1.15273C8.12641 0.385409 8.85233 -0.142662 9.62019 0.0357851C10.1488 0.158054 10.5352 0.641843 10.5379 1.21287C10.5441 2.4197 10.5407 3.62653 10.5407 4.8327V5.1387H11.9856C12.6999 5.13936 12.9975 5.42752 12.9975 6.11884C12.9975 7.12806 13.003 8.13793 12.9962 9.14715Z" fill="#E9445F"/>
</svg>
