<svg width="10" height="13" viewBox="0 0 10 13" fill="none" xmlns="http://www.w3.org/2000/svg">
<path d="M5.34771 0C5.63206 0.057704 5.92425 0.0915737 6.19981 0.177189C7.82931 0.68304 8.77274 1.81078 9.12896 3.45503C9.37345 4.58308 9.19393 5.66471 8.76615 6.72126C8.29883 7.87534 7.67678 8.94412 6.95807 9.95457C6.4669 10.6451 5.93806 11.3097 5.41425 11.9764C5.16223 12.2972 4.85277 12.2903 4.59071 11.9767C3.39934 10.5507 2.32472 9.04636 1.52127 7.36322C1.17729 6.64255 0.87443 5.89961 0.805697 5.09928C0.658816 3.3898 1.08094 1.88447 2.50927 0.794057C3.0924 0.349046 3.76623 0.111331 4.49499 0.028852C4.52951 0.0250887 4.56278 0.0100355 4.59699 0.000313609C4.84744 0 5.09758 0 5.34771 0ZM5.00938 5.63241C5.79118 5.62865 6.41574 5.00112 6.41323 4.22149C6.41072 3.44562 5.77361 2.81338 4.99809 2.81777C4.22068 2.82216 3.59173 3.45597 3.59424 4.23278C3.59675 5.01053 4.22916 5.63586 5.00938 5.63241Z" fill="#A6A6A6"/>
</svg>
