<svg width="11" height="15" viewBox="0 0 11 15" fill="none" xmlns="http://www.w3.org/2000/svg">
<path d="M0 7.00626C0 4.87089 0 2.73552 0 0.600157C0 0.186745 0.200377 0 0.642356 0C3.80524 0 6.96764 0 10.1305 0C10.561 0 10.7647 0.18985 10.7647 0.590841C10.7647 4.86734 10.7647 9.1434 10.7647 13.4199C10.7647 13.8209 10.5605 14.0116 10.131 14.0116C6.96237 14.0116 3.79373 14.0121 0.625098 14.0116C0.207567 14.0116 0 13.8182 0 13.4288C0 11.2881 0 9.14695 0 7.00626ZM5.38141 4.51559C4.32392 4.51559 3.26643 4.51692 2.20894 4.5147C1.95679 4.51426 1.76504 4.60386 1.66102 4.81766C1.49516 5.15789 1.77079 5.51053 2.20175 5.51097C3.46824 5.51275 4.73474 5.51142 6.00171 5.51142C6.85595 5.51142 7.71067 5.51053 8.5649 5.51186C8.8089 5.5123 8.99586 5.42314 9.09988 5.21644C9.27054 4.87666 9.00017 4.51692 8.57209 4.51603C7.50837 4.51426 6.44513 4.51559 5.38141 4.51559ZM5.38189 6.50768C4.3244 6.50768 3.26691 6.50902 2.20942 6.5068C1.95727 6.50635 1.76552 6.59551 1.66102 6.80931C1.49468 7.14954 1.77031 7.50262 2.20127 7.50307C3.43181 7.50484 4.66283 7.50351 5.89337 7.50351C6.78356 7.50351 7.67375 7.50262 8.56394 7.50395C8.80794 7.5044 8.9949 7.41568 9.09892 7.20898C9.27006 6.8692 8.99969 6.50901 8.57209 6.50813C7.50885 6.50635 6.44561 6.50768 5.38189 6.50768ZM5.37997 8.50022C4.32248 8.50022 3.26499 8.50155 2.2075 8.49933C1.95535 8.49889 1.76408 8.58938 1.66054 8.80363C1.49563 9.14429 1.77175 9.4956 2.20366 9.49605C3.55405 9.49782 4.90395 9.49649 6.25434 9.49649C7.02517 9.49649 7.79599 9.4956 8.56634 9.49693C8.81082 9.49738 8.99682 9.40733 9.10036 9.20018C9.27006 8.8604 8.99873 8.502 8.57066 8.50111C7.50693 8.49889 6.44369 8.50022 5.37997 8.50022ZM3.76929 2.5235C3.2439 2.5235 2.71851 2.52217 2.19312 2.52394C1.85948 2.52527 1.61883 2.73242 1.61548 3.01542C1.61164 3.30552 1.85516 3.51843 2.19839 3.51888C3.24342 3.52021 4.28796 3.52021 5.33299 3.51888C5.6791 3.51843 5.92118 3.30907 5.91974 3.01897C5.9183 2.72887 5.67622 2.52483 5.32772 2.52394C4.80856 2.52261 4.28892 2.5235 3.76929 2.5235ZM7.52899 11.4881C7.86934 11.4881 8.20921 11.489 8.54956 11.4877C8.90813 11.4864 9.15357 11.2792 9.14926 10.9829C9.14494 10.6933 8.90334 10.4928 8.55292 10.4919C7.87269 10.491 7.19199 10.4905 6.51176 10.4919C6.16518 10.4923 5.92166 10.6986 5.92118 10.9878C5.92022 11.2774 6.16326 11.4855 6.50841 11.4873C6.84876 11.4895 7.18911 11.4881 7.52899 11.4881Z" fill="#A6A6A6"/>
</svg>
