<svg width="10" height="8" viewBox="0 0 10 8" fill="none" xmlns="http://www.w3.org/2000/svg">
<path d="M0.322571 4.17906C0.611312 4.03135 0.882791 3.89242 1.16055 3.75067C1.41194 4.05581 1.65392 4.36063 1.90719 4.65574C2.50821 5.35603 3.5028 5.3554 4.10256 4.65449C4.33952 4.37788 4.57051 4.09564 4.79397 3.80774C5.58581 2.78663 6.31457 1.72319 6.94007 0.590746C6.96675 0.542764 7.03579 0.491332 7.08758 0.488823C7.30068 0.478474 7.51441 0.482865 7.72783 0.48851C7.91645 0.493528 8.06051 0.58416 8.13489 0.756331C8.63517 1.90978 9.13136 3.06512 9.63352 4.23111C9.21579 4.44782 8.8059 4.66076 8.3957 4.87307C6.82112 5.68877 5.24591 6.50415 3.67228 7.32173C3.58628 7.36626 3.52791 7.38821 3.4438 7.30416C2.42944 6.28588 1.41068 5.27229 0.393187 4.25746C0.374984 4.23895 0.358663 4.2192 0.322571 4.17906Z" fill="#A6A6A6"/>
</svg>
