<svg width="17" height="13" viewBox="0 0 17 13" fill="none" xmlns="http://www.w3.org/2000/svg">
<path d="M16.9995 1.32244C16.9995 4.75421 16.9995 8.18598 16.9995 11.6182C16.9911 11.639 16.9791 11.6585 16.9742 11.6802C16.7822 12.4941 16.2335 12.9389 15.4169 12.9389C10.8031 12.9393 6.18876 12.9393 1.57491 12.9389C0.638566 12.9389 0.00117846 12.2892 0.000734905 11.3345C-0.000152204 8.08961 -0.000152204 4.8447 0.000291351 1.59979C0.000734905 0.655542 0.639453 0.00266932 1.56382 0.00221688C3.64941 0.00131199 5.73545 0.00176444 7.82104 0.00176444C7.87915 0.00176444 7.93725 0.00176444 8.00157 0.00176444C8.00157 0.0949674 8.00157 0.162381 8.00157 0.229795C8.00157 0.686761 7.99758 1.14418 8.00379 1.60114C8.00733 1.86718 8.2056 2.07621 8.4571 2.09974C8.70504 2.12281 8.93835 1.94455 8.98759 1.68756C9.00134 1.61653 8.99735 1.54142 8.99735 1.46813C8.99823 0.984467 8.99779 0.500807 8.99779 0.0121706C9.03461 0.00764617 9.0559 0.00221688 9.07674 0.00221688C11.24 0.00221688 13.4032 -0.00592707 15.5664 0.0090035C16.1426 0.0130755 16.5724 0.322093 16.8363 0.846473C16.9108 0.994873 16.9463 1.16363 16.9995 1.32244ZM11.9492 3.52402C10.3617 3.52538 9.06565 4.84651 9.06432 6.46489C9.06255 8.09187 10.3617 9.41797 11.9559 9.41662C13.5433 9.41526 14.839 8.09413 14.8407 6.4753C14.843 4.84741 13.5451 3.52312 11.9492 3.52402ZM5.27903 8.66375C5.27903 8.5891 5.27903 8.52802 5.27903 8.46649C5.27903 7.45619 5.27814 6.44589 5.27947 5.43558C5.27992 5.20529 5.19476 5.02794 4.98806 4.92795C4.64918 4.76371 4.28458 5.01753 4.2837 5.4202C4.28103 6.44181 4.28281 7.46343 4.28281 8.48459C4.28281 8.54386 4.28281 8.60358 4.28281 8.66285C3.89559 8.66285 3.53276 8.66285 3.15396 8.66285C3.15396 8.58865 3.15396 8.52214 3.15396 8.45608C3.15396 6.90421 3.15485 5.35188 3.15352 3.80001C3.15308 3.4833 2.94594 3.25663 2.66206 3.25301C2.38395 3.24939 2.15996 3.47199 2.15951 3.7706C2.1573 5.57087 2.15685 7.37158 2.15951 9.17185C2.15996 9.46955 2.37242 9.67903 2.66472 9.68627C2.80843 9.68989 2.95259 9.68718 3.0963 9.68718C4.35245 9.68718 5.60815 9.68808 6.86429 9.68672C7.17611 9.68627 7.39833 9.4872 7.401 9.18813C7.40721 8.46016 7.40676 7.73218 7.401 7.0042C7.39878 6.7178 7.16902 6.50063 6.89801 6.5047C6.6332 6.50878 6.41941 6.72323 6.40876 7.00194C6.40344 7.13722 6.40743 7.27295 6.40743 7.40823C6.40743 7.82402 6.40743 8.24027 6.40743 8.66375C6.02819 8.66375 5.66537 8.66375 5.27903 8.66375Z" fill="#A6A6A6"/>
</svg>
