<svg width="8" height="4" viewBox="0 0 8 4" fill="none" xmlns="http://www.w3.org/2000/svg">
<path d="M0 3.40168C0.0831699 3.21822 0.161318 3.03256 0.251707 2.85286C0.281836 2.79296 0.332052 2.72899 0.3898 2.69951C1.69823 2.02682 3.00949 1.35946 4.31887 0.688651C4.39671 0.648823 4.44755 0.638473 4.52005 0.710917C5.53409 1.72858 6.55222 2.74216 7.56877 3.757C7.59325 3.78146 7.61428 3.80968 7.64284 3.84324C7.49784 3.93638 7.36509 3.99942 7.19121 3.99879C5.00432 3.99283 2.81711 3.99095 0.630208 3.99973C0.338329 4.00099 0.125539 3.92102 0 3.65163C0 3.56821 0 3.4851 0 3.40168Z" fill="#A6A6A6"/>
</svg>
