<svg width="9" height="4" viewBox="0 0 9 4" fill="none" xmlns="http://www.w3.org/2000/svg">
<path d="M1.95075 2.17397C2.01905 1.76451 2.08514 1.36681 2.15256 0.962784C3.72053 0.962784 5.27874 0.962784 6.8467 0.962784C6.91412 1.36636 6.98021 1.76451 7.04852 2.17397C7.25832 2.17397 7.45659 2.17216 7.65441 2.17442C7.96268 2.17759 8.18446 2.39205 8.18446 2.68206C8.18402 2.97253 7.96268 3.1888 7.65397 3.18925C5.55108 3.19061 3.44863 3.19061 1.34574 3.18925C1.03791 3.18925 0.815691 2.97208 0.815247 2.68251C0.814804 2.39295 1.03747 2.17804 1.34485 2.17442C1.54268 2.17216 1.74095 2.17397 1.95075 2.17397Z" fill="#A6A6A6"/>
</svg>
