<svg width="46" height="61" viewBox="0 0 46 61" fill="none" xmlns="http://www.w3.org/2000/svg">
<path d="M45.7143 20.6492V23.4091C45.7143 24.7338 44.5584 25.8378 43.1714 25.8378H42.2467V30.088C42.2467 35.2214 40.0506 39.8028 36.583 43.1699C33.9823 45.6538 30.6881 47.4201 26.9893 48.1929C26.9893 48.2481 26.9893 48.3033 26.9893 48.3585V57.4109C26.9893 59.122 25.5445 60.502 23.7529 60.502H21.9613C20.1698 60.502 18.7249 59.122 18.7249 57.4109V48.3585C18.7249 48.3033 18.7249 48.2481 18.7249 48.1929C10.056 46.3713 3.46758 38.9748 3.46758 30.088V25.8378H2.54289C1.15586 25.8378 0 24.7338 0 23.4091V20.6492C0 19.3244 1.15586 18.2205 2.54289 18.2205H43.1714C44.6162 18.2205 45.7143 19.3244 45.7143 20.6492Z" fill="#5CE3B5"/>
<path d="M11.6164 0.501953C13.8703 0.501953 15.7197 2.26828 15.7197 4.42099V16.7301H7.45531V4.42099C7.45531 2.26828 9.30469 0.501953 11.6164 0.501953Z" fill="#5CE3B5"/>
<path d="M34.1557 0.501953C36.4096 0.501953 38.259 2.26828 38.259 4.42099V16.7301H29.9946V4.42099C29.9946 2.26828 31.844 0.501953 34.1557 0.501953Z" fill="#5CE3B5"/>
</svg>
