<svg width="11" height="14" viewBox="0 0 11 14" fill="none" xmlns="http://www.w3.org/2000/svg">
<path d="M0.624039 13.9999C0.313407 13.8677 0.211301 13.6401 0.224724 13.331C0.243419 12.8963 0.229518 12.4602 0.229518 12.0078C0.315804 12.0078 0.385792 12.0078 0.45578 12.0078C2.66759 12.0078 4.8794 12.0078 7.09122 12.0078C8.17315 12.0078 8.8414 11.3868 8.8414 10.3807C8.8414 7.00071 8.8414 3.62111 8.8414 0.241072C8.8414 0.175423 8.8414 0.109773 8.8414 0.0312606C8.90228 0.0272684 8.95357 0.0215022 9.00486 0.0215022C9.4593 0.0206151 9.91374 0.020615 10.3677 0.0210585C10.7862 0.0215021 10.9938 0.21357 10.9938 0.602585C10.9942 4.35878 10.9938 8.11453 10.9938 11.8707C10.9938 12.3573 10.9803 12.8448 10.9986 13.331C11.0101 13.6401 10.9089 13.8672 10.5992 13.9999C7.27434 13.9999 3.94943 13.9999 0.624039 13.9999Z" fill="#A6A6A6"/>
</svg>
